<svg width="166" height="24" viewBox="0 0 166 24" fill="none" xmlns="http://www.w3.org/2000/svg">
<path d="M63.76 3.72V9.97H56.68V3.72H52.78V20.11H56.68V13.52H63.76V20.11H67.66V3.72H67.46H63.76Z" fill="#002C5F"/>
<path d="M81.96 3.72L77.87 10.21L73.8 3.72H69.19L75.93 14.43V20.11H79.83V14.43L86.56 3.72H86.2H81.96Z" fill="#002C5F"/>
<path d="M99.11 3.72V15.73C99.11 16.19 98.77 16.55 98.28 16.55H92.03V3.72H88.13V20.11H99.66C100.69 20.11 101.51 19.81 102.11 19.21C102.71 18.61 103.01 17.79 103.01 16.76V3.72H102.82H99.11Z" fill="#002C5F"/>
<path d="M118.15 3.72H106.62V20.11H110.52V7.27H116.78C117.28 7.27 117.61 7.66 117.61 8.09V20.11H121.51V7.07C121.51 6.04 121.21 5.22 120.61 4.62C119.99 4.03 119.17 3.72 118.15 3.72Z" fill="#002C5F"/>
<path d="M136.64 3.72H125.11V20.11H136.64C137.66 20.11 138.48 19.81 139.08 19.21C139.68 18.61 139.98 17.79 139.98 16.76V7.07C139.98 6.04 139.68 5.22 139.08 4.62C138.48 4.03 137.66 3.72 136.64 3.72ZM136.09 8.12V15.71C136.09 16.15 135.77 16.56 135.26 16.56H129.01V7.27H135.24C135.75 7.27 136.09 7.63 136.09 8.12Z" fill="#002C5F"/>
<path d="M146.78 3.72C145.76 3.72 144.93 4.02 144.33 4.62C143.73 5.22 143.43 6.04 143.43 7.07V20.11H147.32V15.04H154.4V20.11H158.3V3.72H146.78ZM154.41 7.27V11.49H147.33V8.1C147.33 7.7 147.64 7.27 148.16 7.27H154.41Z" fill="#002C5F"/>
<path d="M166 3.72H162.1V20.11H166V3.72Z" fill="#002C5F"/>
<path d="M22.29 23.33C34.6 23.33 44.58 18.22 44.58 11.91C44.59 5.61 34.61 0.5 22.29 0.5C9.98 0.5 0 5.61 0 11.91C0 18.22 9.98 23.33 22.29 23.33ZM26.49 17.73C26.12 18.59 25.48 20.43 24.01 21.17C23.57 21.39 23.02 21.5 22.52 21.51C22.41 21.51 22.33 21.51 22.3 21.51C18.18 21.51 14.36 20.94 11.15 19.96C11.12 19.95 11.05 19.92 11.03 19.91C10.73 19.81 10.58 19.67 10.58 19.51C10.58 19.36 10.66 19.25 10.76 19.15C10.8 19.1 10.87 19.05 10.96 18.97C11.7 18.35 13.93 16.74 18.13 15.13C19.6 14.57 21.44 13.87 23.38 13.46C24.51 13.22 28.7 12.58 26.49 17.73ZM37.75 6.22C37.83 6.08 37.94 5.97 38.13 5.95C38.23 5.94 38.38 5.97 38.59 6.1C41.21 7.71 42.76 9.72 42.76 11.9C42.76 15.84 37.7 19.22 30.46 20.7C29.99 20.79 29.69 20.79 29.58 20.67C29.51 20.6 29.49 20.47 29.58 20.32C29.63 20.24 29.68 20.17 29.77 20.05C33.71 15.4 36.71 8.55 37.57 6.57C37.64 6.45 37.7 6.31 37.75 6.22ZM18.16 6.08C18.53 5.22 19.17 3.38 20.64 2.65C21.09 2.43 21.63 2.32 22.13 2.31C22.24 2.31 22.32 2.31 22.35 2.31C26.47 2.31 30.29 2.88 33.5 3.86C33.52 3.87 33.6 3.9 33.62 3.9C33.92 4 34.07 4.13 34.07 4.3C34.07 4.45 33.99 4.56 33.89 4.66C33.84 4.7 33.78 4.76 33.69 4.84C32.95 5.46 30.72 7.07 26.52 8.68C25.05 9.24 23.2 9.94 21.28 10.35C20.14 10.59 15.95 11.23 18.16 6.08ZM14.12 3.11C14.59 3.02 14.89 3.02 15 3.14C15.06 3.21 15.08 3.34 15 3.49C14.95 3.57 14.9 3.65 14.81 3.76C10.87 8.41 7.87 15.26 7.01 17.24C6.95 17.38 6.88 17.51 6.83 17.6C6.75 17.74 6.65 17.86 6.46 17.87C6.35 17.88 6.21 17.85 5.99 17.72C3.37 16.11 1.82 14.1 1.82 11.92C1.82 7.98 6.88 4.59 14.12 3.11Z" fill="#002C5F"/>
</svg>
